<?xml version="1.0" encoding="utf-8"?>
<!-- Generator: Adobe Illustrator 16.0.0, SVG Export Plug-In . SVG Version: 6.00 Build 0)  -->
<!DOCTYPE svg PUBLIC "-//W3C//DTD SVG 1.1//EN" "http://www.w3.org/Graphics/SVG/1.1/DTD/svg11.dtd">
<svg version="1.1" id="Layer_1" xmlns="http://www.w3.org/2000/svg" xmlns:xlink="http://www.w3.org/1999/xlink" x="0px" y="0px"
	 width="327.301px" height="89.094px" viewBox="0 0 327.301 89.094" enable-background="new 0 0 327.301 89.094"
	 xml:space="preserve">
<g>
	<defs>
		<rect id="SVGID_1_" width="327.301" height="89.094"/>
	</defs>
	<clipPath id="SVGID_2_">
		<use xlink:href="#SVGID_1_"  overflow="visible"/>
	</clipPath>
	<path clip-path="url(#SVGID_2_)" fill="#E5261C" d="M0,25.493h32.018c16.879,0,22.795,12.354,22.795,21.229
		c0,15.052-10.092,22.1-24.361,22.1H19.141v18.793H0V25.493z M19.141,54.031h7.396c4.959,0,10.179-0.349,10.179-6.613
		c0-5.656-4.35-6.003-9.049-6.003h-8.526V54.031z"/>
	<polygon clip-path="url(#SVGID_2_)" fill="#E5261C" points="72.906,25.493 125.283,25.493 125.283,41.415 92.047,41.415 
		92.047,49.158 121.368,49.158 121.368,63.949 92.047,63.949 92.047,71.693 125.283,71.693 125.283,87.615 72.906,87.615 	"/>
	<path clip-path="url(#SVGID_2_)" fill="#E5261C" d="M221.497,25.492h18.706l22.621,62.124h-19.837l-2.61-8.875h-19.75l-2.783,8.875
		h-19.229L221.497,25.492z M236.55,65.428l-5.568-19.142h-0.174l-6.004,19.142H236.55z"/>
	<path clip-path="url(#SVGID_2_)" fill="#E5261C" d="M290.412,66.733c0,1.566,0.261,2.958,0.695,4.09
		c1.393,3.741,5.569,4.524,9.136,4.524c3.133,0,7.918-1.045,7.918-5.656c0-3.219-2.697-4.089-13.399-7.134
		c-9.831-2.784-21.055-5.481-21.055-18.011c0-14.355,12.268-20.533,25.058-20.533c13.485,0,25.405,5.134,25.927,20.273h-18.097
		c0.348-2.349-0.697-3.915-2.262-4.959c-1.567-1.131-3.741-1.567-5.655-1.567c-2.611,0-6.874,0.697-6.874,4.177
		c0.348,4.437,9.222,5.394,18.01,7.83c8.787,2.437,17.488,6.525,17.488,17.923c0,16.184-14.878,21.404-28.711,21.404
		c-7.048,0-27.147-2.523-27.321-22.361H290.412z"/>
	<polygon clip-path="url(#SVGID_2_)" fill="#E5261C" points="0,0 0,15.922 144.425,15.922 144.425,87.615 144.443,87.615 
		144.544,87.615 144.562,87.615 182.739,87.615 182.757,87.615 182.858,87.615 182.877,87.615 182.877,15.922 327.301,15.922 
		327.301,0 	"/>
</g>
</svg>
